<svg xmlns="http://www.w3.org/2000/svg" viewBox="0 0 20.25 29.72"><defs><style>.cls-1{fill:#ac31af;}.cls-2{fill:#fff;}.cls-3{font-size:6px;font-family:MicrosoftYaHeiLight, Microsoft YaHei;}</style></defs><title>资源 19</title><g id="图层_2" data-name="图层 2"><g id="图层_2-2" data-name="图层 2"><circle class="cls-1" cx="10.13" cy="10.12" r="10.12"/><path class="cls-2" d="M9.94,4.11a3.88,3.88,0,0,1,3.57,2.65h.76A4.64,4.64,0,0,0,9.94,3.35,4.62,4.62,0,0,0,5.61,6.76h.75A3.89,3.89,0,0,1,9.94,4.11Z"/><path class="cls-2" d="M16.45,7.18H3.8a.46.46,0,0,0-.45.47V9.32a.45.45,0,0,0,.45.46h.38l1,6.36s0,.76.6.76h8.77c.53,0,.6-.76.6-.76l1-6.36h.34a.45.45,0,0,0,.45-.46V7.65a.46.46,0,0,0-.45-.47ZM8.24,14.73a.49.49,0,0,1-.49.51.5.5,0,0,1-.49-.51V10.51A.5.5,0,0,1,7.75,10a.49.49,0,0,1,.49.51Zm2.37,0a.49.49,0,1,1-1,0V10.51a.49.49,0,1,1,1,0Zm2.34,0a.49.49,0,1,1-1,0V10.51a.49.49,0,1,1,1,0Z"/><text class="cls-3" transform="translate(1.13 28.15)">超市购</text></g></g></svg>