<svg xmlns="http://www.w3.org/2000/svg" viewBox="0 0 20.25 29.72"><defs><style>.cls-1{fill:#ef1b49;}.cls-2{fill:#fff;}.cls-3{fill:none;}.cls-4{font-size:6px;font-family:MicrosoftYaHeiLight, Microsoft YaHei;}</style></defs><title>资源 18</title><g id="图层_2" data-name="图层 2"><g id="图层_2-2" data-name="图层 2"><circle class="cls-1" cx="10.13" cy="10.12" r="10.12"/><path class="cls-2" d="M9.9,6.39a.76.76,0,0,1,1.07,0l5.14,5.13a.78.78,0,0,1,.23.55.74.74,0,0,1-.23.53l-3.52,3.51a.67.67,0,0,1-.52.22.79.79,0,0,1-.56-.22L6.38,11a.76.76,0,0,1-.21-.54.71.71,0,0,1,.21-.53Zm4,5.68a.37.37,0,0,0,.27.11.36.36,0,0,0,.26-.11.37.37,0,0,0,.12-.27.38.38,0,0,0-.12-.28L10.71,7.75a.39.39,0,0,0-.54,0,.33.33,0,0,0-.11.26.37.37,0,0,0,.11.27ZM9,5.18A.57.57,0,0,1,9.36,5a.52.52,0,0,1,.4.18.54.54,0,0,1,.18.41A.57.57,0,0,1,9.76,6L6,9.77a.53.53,0,0,1-.41.17.49.49,0,0,1-.39-.17A.54.54,0,0,1,5,9.36.55.55,0,0,1,5.18,9ZM4.08,4.92a.58.58,0,0,1-.17-.41.61.61,0,0,1,.17-.41.55.55,0,0,1,.81,0,.5.5,0,0,1,.17.39.52.52,0,0,1-.17.4,1.41,1.41,0,0,1,.56-.34,1.9,1.9,0,0,1,.67-.09,2.31,2.31,0,0,1,.7.17,2.36,2.36,0,0,1,.64.42h0a.38.38,0,0,1,.28-.12A.34.34,0,0,1,8,5a.41.41,0,0,1,0,.55L5.59,8a.41.41,0,0,1-.28.11A.37.37,0,0,1,5,8a.35.35,0,0,1,0-.54H5a2.32,2.32,0,0,1-.41-.64,2.07,2.07,0,0,1-.18-.69,1.74,1.74,0,0,1,.09-.65,1.56,1.56,0,0,1,.35-.56.57.57,0,0,1-.4.16.57.57,0,0,1-.41-.16Z"/><rect class="cls-3" x="3.91" y="3.91" width="12.42" height="12.42"/><text class="cls-4" transform="translate(1.13 28.15)">母婴品</text></g></g></svg>