<svg xmlns="http://www.w3.org/2000/svg" viewBox="0 0 20.25 29.72"><defs><style>.cls-1{fill:#4da53d;}.cls-2{fill:#fff;}.cls-3{font-size:6px;font-family:MicrosoftYaHeiLight, Microsoft YaHei;}</style></defs><title>资源 20</title><g id="图层_2" data-name="图层 2"><g id="图层_2-2" data-name="图层 2"><circle class="cls-1" cx="10.13" cy="10.12" r="10.12"/><path class="cls-2" d="M6.21,14.67,2,10.42,4.88,7.49l.23.14A1.71,1.71,0,0,0,7.47,5.28l-.14-.23,2.92-2.93L14.5,6.37,11.58,9.3l-.23-.14a1.71,1.71,0,0,0-2.11.24A1.73,1.73,0,0,0,9,11.51l.14.23ZM2.92,10.42l3.29,3.29,2.08-2.08a2.39,2.39,0,0,1,3.18-3.18l2.07-2.08L10.25,3.08,8.17,5.16A2.39,2.39,0,0,1,5,8.34Z"/><path class="cls-2" d="M12.68,7.73,8.9,3.94l.47-.48.25.23,3.55,3.55ZM7.09,13.31,3.31,9.53l.48-.48L4,9.28l3.54,3.55Z"/><path class="cls-2" d="M14.56,16.33,8.44,10.21l.48-.48,5.64,5.64.65-.65L9.5,9,10,8.53l6.19,6.19Z"/><text class="cls-3" transform="translate(4.13 28.15)">拍卖</text></g></g></svg>