<svg xmlns="http://www.w3.org/2000/svg" viewBox="0 0 20.25 29.72"><defs><style>.cls-1{fill:#29efef;}.cls-2,.cls-3{fill:none;}.cls-2{stroke:#fff;stroke-miterlimit:10;stroke-width:0.75px;}.cls-4{font-size:6px;font-family:MicrosoftYaHeiLight, Microsoft YaHei;}</style></defs><title>资源 21</title><g id="图层_2" data-name="图层 2"><g id="图层_2-2" data-name="图层 2"><circle class="cls-1" cx="10.12" cy="10.12" r="10.12"/><path class="cls-2" d="M7.36,2.93H5.14A2.21,2.21,0,0,0,2.93,5.14V7.35A2.21,2.21,0,0,0,5.14,9.56H7.36A2.22,2.22,0,0,0,9.57,7.35V5.14A2.22,2.22,0,0,0,7.36,2.93Z"/><path class="cls-2" d="M15.11,2.93H12.89a2.22,2.22,0,0,0-2.21,2.21V7.35a2.22,2.22,0,0,0,2.21,2.21h2.22a2.21,2.21,0,0,0,2.21-2.21V5.14a2.21,2.21,0,0,0-2.21-2.21Z"/><path class="cls-2" d="M7.36,10.67H5.14a2.21,2.21,0,0,0-2.21,2.21v2.21A2.21,2.21,0,0,0,5.14,17.3H7.36a2.22,2.22,0,0,0,2.21-2.21V12.88a2.22,2.22,0,0,0-2.21-2.21Z"/><path class="cls-2" d="M15.11,10.67H12.89a2.22,2.22,0,0,0-2.21,2.21v2.21a2.22,2.22,0,0,0,2.21,2.21h2.22a2.21,2.21,0,0,0,2.21-2.21V12.88a2.21,2.21,0,0,0-2.21-2.21Z"/><rect class="cls-3" x="2.93" y="2.93" width="14.4" height="14.4"/><text class="cls-4" transform="translate(4.12 28.15)">分类</text></g></g></svg>